<svg id="Layer_1" data-name="Layer 1" xmlns="http://www.w3.org/2000/svg" viewBox="0 0 128 128"><title>DESIGN</title><path d="M116.75,21.59a10.352,10.352,0,0,0-10.34-10.34H24.54l-.018,0A13.322,13.322,0,0,0,11.25,24.558V115A1.75,1.75,0,0,0,13,116.75h93.41a1.75,1.75,0,0,0,1.75-1.75V31.771A10.349,10.349,0,0,0,116.75,21.59Zm-102,91.66V24.558a9.819,9.819,0,0,1,9.8-9.808,6.84,6.84,0,0,1-.009,13.68,1.75,1.75,0,0,0,0,3.5h80.12V113.25Zm91.663-84.82H32.288a10.322,10.322,0,0,0,0-13.681H106.41a6.84,6.84,0,0,1,0,13.68Z"/><path d="M24.3,55.646a1.739,1.739,0,0,0,.919-.262l1.391-.861V68.729a1.75,1.75,0,0,0,1.75,1.75H49.692a1.75,1.75,0,0,0,1.75-1.75V54.522l1.392.861a1.75,1.75,0,1,0,1.842-2.976L39.949,43.292a1.748,1.748,0,0,0-1.842,0L23.382,52.408a1.75,1.75,0,0,0,.923,3.238Zm14.724-8.808,8.914,5.518V66.979H30.114V52.356Z"/><path d="M99,91.338H20a1.75,1.75,0,0,0-1.75,1.75v13.9a1.75,1.75,0,0,0,1.75,1.75H99a1.75,1.75,0,0,0,1.75-1.75v-13.9A1.75,1.75,0,0,0,99,91.338Zm-1.75,13.9H89.483V99.507a1.75,1.75,0,0,0-3.5,0v5.731H80.072v-3.462a1.75,1.75,0,0,0-3.5,0v3.462H70.661V99.507a1.75,1.75,0,0,0-3.5,0v5.731H61.25v-3.462a1.75,1.75,0,0,0-3.5,0v3.462H51.839V99.507a1.75,1.75,0,0,0-3.5,0v5.731H42.428v-3.462a1.75,1.75,0,0,0-3.5,0v3.462H33.017V99.507a1.75,1.75,0,1,0-3.5,0v5.731H21.75v-10.4h75.5Z"/><path d="M24.54,81.579a1.75,1.75,0,1,0,0,3.5H94.5a1.75,1.75,0,0,0,0-3.5H66.745l1.6-.646a1.751,1.751,0,0,0,.739-.566l17.831-23.56.7.528a1.749,1.749,0,0,0,1.056.354,1.727,1.727,0,0,0,.24-.017,1.751,1.751,0,0,0,1.155-.677l2.816-3.721a1.75,1.75,0,0,0-.34-2.452l-.7-.528,3.223-4.259a7.192,7.192,0,0,0,1.464-4.651q-.014-.358-.064-.718A7.25,7.25,0,0,0,83.5,37.284l-3.223,4.259-.7-.528a1.75,1.75,0,0,0-2.451.339l-2.816,3.721a1.75,1.75,0,0,0,.34,2.452l.7.528L57.521,71.615a1.75,1.75,0,0,0-.344.866l-1,9.1Zm64.23-43.634a3.75,3.75,0,0,1,3.5,5.978l-3.223,4.258-5.968-4.516-.012-.009L86.295,39.4A3.726,3.726,0,0,1,88.771,37.945Zm-9.9,6.917,10.167,7.694-.7.93L78.162,45.792ZM60.6,73.342l17.54-23.176,5.98,4.526L66.584,77.868l-6.776,2.74Z"/></svg>