<svg id="Layer_1" data-name="Layer 1" xmlns="http://www.w3.org/2000/svg" viewBox="0 0 128 128"><title>PAINT ROLLER</title><path d="M104.373,22.922h-2.036V17.468a6.225,6.225,0,0,0-6.218-6.218H18.207a6.225,6.225,0,0,0-6.218,6.218V31.876a6.224,6.224,0,0,0,6.218,6.217H31.8V55.459a6.024,6.024,0,0,0,5.585,6.126c.106,0,.213.008.318.008a5.842,5.842,0,0,0,4.056-1.62A5.924,5.924,0,0,0,43.6,55.693v-17.6h52.52a6.224,6.224,0,0,0,6.218-6.217V26.422h2.036a8.137,8.137,0,0,1,1.6,16.115L65.312,50.71a11.672,11.672,0,0,0-9.345,11.41v2.9H49.125a1.75,1.75,0,0,0-1.75,1.75v39.636a10.342,10.342,0,1,0,20.685,0V66.771a1.75,1.75,0,0,0-1.75-1.75H59.468v-2.9A8.163,8.163,0,0,1,66,54.142l40.664-8.173a11.637,11.637,0,0,0-2.293-23.047ZM18.207,34.593a2.72,2.72,0,0,1-2.718-2.717V17.468a2.719,2.719,0,0,1,1.687-2.512,13.463,13.463,0,0,0,4.248,7.709c2.606,2.242,6.1,3.264,10.377,3.029v8.9ZM40.1,55.693a2.375,2.375,0,0,1-.748,1.74,2.338,2.338,0,0,1-1.782.655,2.559,2.559,0,0,1-2.268-2.63V23.8a1.824,1.824,0,0,0-.6-1.317,1.758,1.758,0,0,0-1.405-.44c-4.145.545-7.362-.13-9.565-2.009a9.815,9.815,0,0,1-3.019-5.283H59.98a6.214,6.214,0,0,1,3.086,7.115c-.629,2.785-2.963,5.783-6.6,5.783a12.47,12.47,0,0,1-5.8-1.47,7.352,7.352,0,0,0-7.146.38A7.258,7.258,0,0,0,40.1,32.744ZM98.837,31.876a2.72,2.72,0,0,1-2.718,2.717H43.6V32.744a3.728,3.728,0,0,1,1.777-3.22,3.871,3.871,0,0,1,3.762-.2,15.9,15.9,0,0,0,7.328,1.819A10.482,10.482,0,0,0,66.48,22.637a9.914,9.914,0,0,0-1.366-7.887h31a2.72,2.72,0,0,1,2.718,2.718ZM64.56,106.407a6.842,6.842,0,1,1-13.685,0V68.521H64.56Z"/></svg>