<svg id="Layer_1" data-name="Layer 1" xmlns="http://www.w3.org/2000/svg" viewBox="0 0 128 128"><title>FLOOR</title><path d="M115,28.25H81A1.75,1.75,0,0,0,79.25,30V62.25H48.75V30A1.75,1.75,0,0,0,47,28.25H13A1.75,1.75,0,0,0,11.25,30V64A1.75,1.75,0,0,0,13,65.75H45.25V98A1.75,1.75,0,0,0,47,99.75H81A1.75,1.75,0,0,0,82.75,98V65.75H115A1.75,1.75,0,0,0,116.75,64V30A1.75,1.75,0,0,0,115,28.25ZM14.75,31.75h30.5v30.5H14.75Zm64.5,64.5H48.75V65.75h30.5Zm34-34H82.75V31.75h30.5Z"/><path d="M40.249,35a1.75,1.75,0,0,0-1.75,1.75V55.5H19.751a1.75,1.75,0,1,0,0,3.5h20.5A1.75,1.75,0,0,0,42,57.249v-20.5A1.75,1.75,0,0,0,40.249,35Z"/><path d="M87.752,59h20.5a1.75,1.75,0,0,0,1.75-1.75v-20.5a1.75,1.75,0,0,0-3.5,0V55.5H87.752a1.75,1.75,0,0,0,0,3.5Z"/><path d="M53.751,93h20.5A1.75,1.75,0,0,0,76,91.249v-20.5a1.75,1.75,0,1,0-3.5,0V89.5H53.751a1.75,1.75,0,0,0,0,3.5Z"/></svg>