<?xml version="1.0" encoding="utf-8"?>
<!-- Generator: Adobe Illustrator 21.0.0, SVG Export Plug-In . SVG Version: 6.00 Build 0)  -->
<svg version="1.1" id="Layer_1" xmlns="http://www.w3.org/2000/svg" xmlns:xlink="http://www.w3.org/1999/xlink" x="0px" y="0px"
	 viewBox="0 0 128 128" style="enable-background:new 0 0 128 128;" xml:space="preserve">
<title>PARQUET</title>
<path d="M115.1,89.5V64c0-1-0.8-1.8-1.8-1.8H90.4V38.5c0-1-0.8-1.8-1.8-1.8H65.8V13c0-1-0.8-1.8-1.8-1.8H14.6
	c-1.2,0-1.8,0.7-1.8,1.8v25.5c0,1,0.8,1.8,1.8,1.8h22.9v22H14.6c-1,0-1.8,0.8-1.8,1.8v25.5c0,1,0.8,1.8,1.8,1.8h22.9V115
	c0,1,0.8,1.8,1.8,1.8h49.4c1,0,1.8-0.8,1.8-1.8V91.3h22.9C114.8,91.3,115.1,90.4,115.1,89.5z M111.6,80.3c-0.8-1-1.7-1.8-2.7-2.5
	c-3-1.8-6.7-1.8-10.9,0c-12.3,5.1-20.2,1.3-20.3,1.3c-0.9-0.4-1.9-0.1-2.4,0.8s-0.1,1.9,0.8,2.4c0.4,0.2,9.4,4.7,23.3-1.2
	c3.2-1.3,5.8-1.4,7.8-0.2c2.6,1.5,3.7,4.8,4.2,6.9H65.8V72.3c1.7-0.8,6.2-2,12.8,2.4c2.7,1.8,5.9,2.8,9.1,2.8c2.1,0,4.2-0.4,6.2-1.3
	c4.5-2,7.8-5.8,9.1-10.5h8.7L111.6,80.3z M90.9,65.8c-1.3,1.1-2.9,1.6-4.6,1.5c-1.1-0.2-2-0.7-2.8-1.5H90.9z M79.1,65.8
	c0.9,1.6,3.1,4.4,6.6,4.9c0.4,0.1,0.8,0.1,1.2,0.1c3,0,6.1-1.7,9.2-5h3.1c-1.2,3.3-3.6,5.9-6.8,7.3c-3.9,1.7-8.5,1.2-12-1.3
	c-6.6-4.4-11.8-4-14.7-3.2v-2.9H79.1z M37.1,36.8c1.3-1.1,2.9-1.6,4.6-1.5c1.1,0.2,2,0.7,2.8,1.5H37.1L37.1,36.8z M48.9,36.8
	c-0.9-1.6-3.1-4.4-6.6-4.9c-3.3-0.5-6.8,1.2-10.4,4.9h-3.1c1.2-3.3,3.6-5.9,6.8-7.3c3.9-1.7,8.5-1.2,12,1.3c6.6,4.4,11.8,4,14.7,3.2
	v2.9H48.9z M16.4,22.2c0.8,1,1.7,1.8,2.7,2.5c1.5,0.9,3.2,1.4,5,1.4c2.1,0,4.1-0.5,5.9-1.3c12.3-5.1,20.2-1.3,20.3-1.3
	c0.9,0.4,1.9,0.1,2.3-0.8c0.4-0.8,0.1-1.9-0.7-2.3c-0.4-0.2-9.4-4.7-23.3,1.2c-3.2,1.3-5.8,1.4-7.8,0.2c-2.6-1.5-3.7-4.8-4.2-6.9
	h45.5v15.4c-1.7,0.8-6.2,2-12.8-2.4c-4.5-3.1-10.3-3.7-15.3-1.5c-4.5,2-7.8,5.8-9.1,10.5h-8.7V22.2z M74.5,40.3
	c-1.2,3.3-3.6,5.9-6.8,7.3c-3.9,1.7-8.5,1.2-12-1.3c-6.6-4.4-11.8-4-14.7-3.2v-2.9H74.5z M41.1,54c1.4-0.4,2.8-0.3,4.2,0.2
	c0.8,0.5,1.9,0.2,2.4-0.7c0.5-0.8,0.2-1.9-0.6-2.3c-1.8-0.9-3.9-1.2-5.9-0.8v-3.6c1.7-0.8,6.2-2,12.8,2.4C56.5,51,59.7,52,63,52
	c2.1,0,4.2-0.4,6.2-1.3c4.5-2,7.8-5.8,9.1-10.5h8.7v14.5c-0.8-1-1.7-1.8-2.7-2.5c-3-1.8-6.7-1.8-10.9,0c-12.3,5.1-20.2,1.3-20.3,1.3
	c-0.9-0.4-1.9-0.1-2.4,0.8c-0.4,0.9-0.1,1.9,0.8,2.4c0.4,0.2,9.4,4.7,23.3-1.2c3.2-1.3,5.8-1.4,7.8-0.2c2.6,1.5,3.7,4.8,4.2,6.9
	H41.1V54z M61.9,65.8c-0.5,2.1-1.7,5.4-4.2,6.9c-2,1.2-4.6,1.1-7.8-0.2C36,66.7,27,71.1,26.6,71.3c-0.9,0.5-1.2,1.5-0.7,2.4
	c0.4,0.8,1.5,1.2,2.3,0.7c0.1,0,7.9-3.9,20.3,1.3c1.9,0.8,3.9,1.3,5.9,1.3c1.8,0,3.5-0.4,5-1.3c1.1-0.6,2-1.5,2.8-2.5v14.5h-8.7
	c-1.3-4.7-4.6-8.5-9.1-10.5c-5-2.1-10.8-1.6-15.3,1.5c-6.6,4.4-11.1,3.1-12.8,2.4v-3.6c0.6,0.1,1.2,0.2,1.8,0.2
	c1.4,0,2.8-0.3,4.1-0.9c0.8-0.5,1.1-1.5,0.6-2.4c-0.5-0.8-1.5-1.1-2.4-0.7c-1.3,0.6-2.8,0.6-4.2,0.2v-8.3H61.9z M16.4,84.9
	c2.9,0.9,8.1,1.2,14.7-3.2c3.5-2.5,8-2.9,12-1.3c3.2,1.4,5.6,4,6.8,7.3H16.4V84.9z M55.9,113.3c1.3-1.1,2.9-1.6,4.6-1.5
	c1.1,0.2,2,0.7,2.8,1.5H55.9z M86.9,99.5c-1.4,0.4-2.8,0.3-4.2-0.2c-0.8-0.5-1.9-0.2-2.4,0.7c-0.5,0.8-0.2,1.9,0.6,2.3
	c1.3,0.6,2.7,1,4.1,0.9c0.6,0,1.2-0.1,1.8-0.2v10.2H67.7c-0.9-1.6-3.1-4.4-6.6-4.9c-3.3-0.5-6.8,1.2-10.4,4.9h-3.1
	c1.2-3.3,3.6-5.9,6.8-7.3c3.9-1.7,8.5-1.2,12,1.3c10.5,6.9,17.2,2.1,17.5,1.9c0.8-0.6,0.9-1.6,0.4-2.4c-0.6-0.8-1.6-1-2.4-0.4
	c-0.2,0.1-5.2,3.5-13.5-2c-4.5-3.1-10.3-3.7-15.3-1.5c-4.5,2-7.8,5.8-9.1,10.5h-2.8V98.7c0.8,1,1.7,1.8,2.7,2.5
	c1.5,0.9,3.2,1.4,5,1.3c2.1,0,4.1-0.5,5.9-1.3c12.3-5.1,20.2-1.3,20.3-1.3c0.9,0.4,1.9,0.1,2.4-0.8c0.4-0.9,0.1-1.9-0.8-2.4l0,0
	c-0.4-0.2-9.4-4.7-23.3,1.2c-3.2,1.3-5.8,1.4-7.8,0.2c-2.6-1.5-3.7-4.8-4.2-6.9h45.5V99.5z"/>
</svg>
