<svg id="Layer_1" data-name="Layer 1" xmlns="http://www.w3.org/2000/svg" viewBox="0 0 128 128"><title>HOUSE</title><path d="M64,47.833a7.75,7.75,0,1,0,7.75,7.75A7.759,7.759,0,0,0,64,47.833Zm0,12a4.25,4.25,0,1,1,4.25-4.25A4.255,4.255,0,0,1,64,59.833Z"/><path d="M115,113.083h-5.083V58.917H115a1.75,1.75,0,0,0,1.6-2.463l-11-24.667A1.749,1.749,0,0,0,104,30.75H73.593l-5.862-5.923a5.353,5.353,0,0,0-7.462,0L54.407,30.75H48.465V20.25H49.59a1.75,1.75,0,0,0,1.75-1.75V13.167a1.75,1.75,0,0,0-1.75-1.75H28.41a1.75,1.75,0,0,0-1.75,1.75V18.5a1.75,1.75,0,0,0,1.75,1.75h1.125v10.5H24a1.749,1.749,0,0,0-1.6,1.037l-11,24.667A1.75,1.75,0,0,0,13,58.917h5.083v54.166H13a1.75,1.75,0,0,0,0,3.5H115a1.75,1.75,0,0,0,0-3.5Zm-41.375,0H54.375V87.75h19.25Zm1.75-28.833H52.625A1.75,1.75,0,0,0,50.875,86v27.083H42.323v-55.2L64,35.983l21.677,21.9v55.2H77.125V86A1.75,1.75,0,0,0,75.375,84.25Zm-36.552,0H28.917V80.083h9.907Zm62.01,3.5a1.75,1.75,0,0,0,1.75-1.75V78.333a1.75,1.75,0,0,0-1.75-1.75H89.177V61.423L91.032,63.3a5.232,5.232,0,0,0,8.914-4.38h6.47v54.166H89.177V87.75Zm-11.657-3.5V80.083h9.907V84.25Zm13.687-50L112.3,55.417h-14.3L77.057,34.25Zm-46.491-.511,0,0,6.379-6.446a1.86,1.86,0,0,1,2.489,0L95.886,58.25a1.752,1.752,0,0,0,.187.2,1.736,1.736,0,0,1-.079,2.394,1.792,1.792,0,0,1-2.475-.014L65.244,32.265a1.8,1.8,0,0,0-2.487,0L34.481,60.834a1.746,1.746,0,0,1-1.236.52h-.01a1.742,1.742,0,0,1-1.309-2.9,1.744,1.744,0,0,0,.187-.2ZM30.16,14.917H47.84V16.75H30.16Zm14.8,5.333v10.5H33.035V20.25ZM15.7,55.417,25.136,34.25H50.943L29.994,55.417Zm5.887,3.5h6.47a5.221,5.221,0,0,0,5.181,5.937h.03a5.221,5.221,0,0,0,3.7-1.557l1.855-1.874v15.16H27.167a1.75,1.75,0,0,0-1.75,1.75V86a1.75,1.75,0,0,0,1.75,1.75H38.823v25.333H21.583Z"/></svg>